<mxfile host="app.diagrams.net" agent="Mozilla/5.0 (Macintosh; Intel Mac OS X 10_15_7) AppleWebKit/537.36 (KHTML, like Gecko) Chrome/133.0.0.0 Safari/537.36" version="26.0.16" pages="6">
  <diagram id="prtHgNgQTEPvFCAcTncT" name="SIMS Master Data">
    <mxGraphModel dx="1266" dy="607" grid="1" gridSize="10" guides="1" tooltips="1" connect="1" arrows="1" fold="1" page="1" pageScale="1" pageWidth="827" pageHeight="1169" math="0" shadow="0">
      <root>
        <mxCell id="0" />
        <mxCell id="1" parent="0" />
        <mxCell id="dNxyNK7c78bLwvsdeMH5-19" value="SIMS Master Data Interfaces" style="swimlane;html=1;childLayout=stackLayout;resizeParent=1;resizeParentMax=0;horizontal=0;startSize=20;horizontalStack=0;" parent="1" vertex="1">
          <mxGeometry x="120" y="120" width="450" height="360" as="geometry" />
        </mxCell>
        <mxCell id="dNxyNK7c78bLwvsdeMH5-20" value="SAP ECC" style="swimlane;html=1;startSize=20;horizontal=0;" parent="dNxyNK7c78bLwvsdeMH5-19" vertex="1">
          <mxGeometry x="20" width="430" height="120" as="geometry" />
        </mxCell>
        <mxCell id="bwc_zOErkG3k9N8ntBH8-1" value="IDoc&lt;br&gt;(CREMAS/DEBMAS)" style="rounded=0;whiteSpace=wrap;html=1;" vertex="1" parent="dNxyNK7c78bLwvsdeMH5-20">
          <mxGeometry x="50" y="30" width="120" height="60" as="geometry" />
        </mxCell>
        <mxCell id="bwc_zOErkG3k9N8ntBH8-7" value="ABAP Proxy" style="rounded=0;whiteSpace=wrap;html=1;fontFamily=Helvetica;fontSize=12;fontColor=#000000;align=center;" vertex="1" parent="dNxyNK7c78bLwvsdeMH5-20">
          <mxGeometry x="220" y="30" width="130" height="60" as="geometry" />
        </mxCell>
        <mxCell id="bwc_zOErkG3k9N8ntBH8-16" value="" style="endArrow=classic;html=1;rounded=0;" edge="1" parent="dNxyNK7c78bLwvsdeMH5-20">
          <mxGeometry width="50" height="50" relative="1" as="geometry">
            <mxPoint x="330" y="90" as="sourcePoint" />
            <mxPoint x="330" y="150" as="targetPoint" />
          </mxGeometry>
        </mxCell>
        <mxCell id="bwc_zOErkG3k9N8ntBH8-22" value="(3)" style="edgeLabel;html=1;align=center;verticalAlign=middle;resizable=0;points=[];" vertex="1" connectable="0" parent="bwc_zOErkG3k9N8ntBH8-16">
          <mxGeometry x="-0.4667" y="-4" relative="1" as="geometry">
            <mxPoint as="offset" />
          </mxGeometry>
        </mxCell>
        <mxCell id="dNxyNK7c78bLwvsdeMH5-21" value="PI/PO" style="swimlane;html=1;startSize=20;horizontal=0;" parent="dNxyNK7c78bLwvsdeMH5-19" vertex="1">
          <mxGeometry x="20" y="120" width="430" height="120" as="geometry" />
        </mxCell>
        <mxCell id="bwc_zOErkG3k9N8ntBH8-3" value="" style="rhombus;whiteSpace=wrap;html=1;fontFamily=Helvetica;fontSize=12;fontColor=#000000;align=center;" vertex="1" parent="dNxyNK7c78bLwvsdeMH5-21">
          <mxGeometry x="90" y="30" width="40" height="40" as="geometry" />
        </mxCell>
        <mxCell id="bwc_zOErkG3k9N8ntBH8-9" value="Async/Sync Bridge&lt;div&gt;&lt;br&gt;&lt;/div&gt;" style="text;html=1;align=center;verticalAlign=middle;resizable=0;points=[];autosize=1;strokeColor=none;fillColor=none;" vertex="1" parent="dNxyNK7c78bLwvsdeMH5-21">
          <mxGeometry x="214" width="120" height="40" as="geometry" />
        </mxCell>
        <mxCell id="bwc_zOErkG3k9N8ntBH8-10" value="&lt;div&gt;IDoc to SOAP Mapping&lt;/div&gt;" style="text;html=1;align=center;verticalAlign=middle;resizable=0;points=[];autosize=1;strokeColor=none;fillColor=none;" vertex="1" parent="dNxyNK7c78bLwvsdeMH5-21">
          <mxGeometry x="35" y="75" width="150" height="30" as="geometry" />
        </mxCell>
        <mxCell id="bwc_zOErkG3k9N8ntBH8-12" value="" style="rhombus;whiteSpace=wrap;html=1;fontFamily=Helvetica;fontSize=12;fontColor=#000000;align=center;" vertex="1" parent="dNxyNK7c78bLwvsdeMH5-21">
          <mxGeometry x="310" y="30" width="40" height="40" as="geometry" />
        </mxCell>
        <mxCell id="bwc_zOErkG3k9N8ntBH8-13" value="&lt;div&gt;SOAP Broker (Passthrough)&lt;/div&gt;" style="text;html=1;align=center;verticalAlign=middle;resizable=0;points=[];autosize=1;strokeColor=none;fillColor=none;" vertex="1" parent="dNxyNK7c78bLwvsdeMH5-21">
          <mxGeometry x="240" y="70" width="170" height="30" as="geometry" />
        </mxCell>
        <mxCell id="dNxyNK7c78bLwvsdeMH5-22" value="SIMS" style="swimlane;html=1;startSize=20;horizontal=0;" parent="dNxyNK7c78bLwvsdeMH5-19" vertex="1">
          <mxGeometry x="20" y="240" width="430" height="120" as="geometry" />
        </mxCell>
        <mxCell id="dNxyNK7c78bLwvsdeMH5-34" value="SIMS SOAP Endpoint" style="rounded=0;whiteSpace=wrap;html=1;fontFamily=Helvetica;fontSize=12;fontColor=#000000;align=center;" parent="dNxyNK7c78bLwvsdeMH5-22" vertex="1">
          <mxGeometry x="190" y="20" width="170" height="60" as="geometry" />
        </mxCell>
        <mxCell id="bwc_zOErkG3k9N8ntBH8-5" style="edgeStyle=orthogonalEdgeStyle;rounded=0;orthogonalLoop=1;jettySize=auto;html=1;exitX=0.5;exitY=1;exitDx=0;exitDy=0;entryX=0.5;entryY=0;entryDx=0;entryDy=0;" edge="1" parent="dNxyNK7c78bLwvsdeMH5-19" source="bwc_zOErkG3k9N8ntBH8-1" target="bwc_zOErkG3k9N8ntBH8-3">
          <mxGeometry relative="1" as="geometry" />
        </mxCell>
        <mxCell id="bwc_zOErkG3k9N8ntBH8-20" value="(1)" style="edgeLabel;html=1;align=center;verticalAlign=middle;resizable=0;points=[];" vertex="1" connectable="0" parent="bwc_zOErkG3k9N8ntBH8-5">
          <mxGeometry x="-0.6" relative="1" as="geometry">
            <mxPoint as="offset" />
          </mxGeometry>
        </mxCell>
        <mxCell id="bwc_zOErkG3k9N8ntBH8-11" style="edgeStyle=orthogonalEdgeStyle;rounded=0;orthogonalLoop=1;jettySize=auto;html=1;" edge="1" parent="dNxyNK7c78bLwvsdeMH5-19" source="bwc_zOErkG3k9N8ntBH8-3">
          <mxGeometry relative="1" as="geometry">
            <mxPoint x="240" y="92" as="targetPoint" />
          </mxGeometry>
        </mxCell>
        <mxCell id="bwc_zOErkG3k9N8ntBH8-21" value="(2)" style="edgeLabel;html=1;align=center;verticalAlign=middle;resizable=0;points=[];" vertex="1" connectable="0" parent="bwc_zOErkG3k9N8ntBH8-11">
          <mxGeometry x="-0.2522" relative="1" as="geometry">
            <mxPoint as="offset" />
          </mxGeometry>
        </mxCell>
        <mxCell id="bwc_zOErkG3k9N8ntBH8-17" style="edgeStyle=orthogonalEdgeStyle;rounded=0;orthogonalLoop=1;jettySize=auto;html=1;exitX=0;exitY=0.5;exitDx=0;exitDy=0;entryX=0.25;entryY=0;entryDx=0;entryDy=0;" edge="1" parent="dNxyNK7c78bLwvsdeMH5-19" source="bwc_zOErkG3k9N8ntBH8-12" target="dNxyNK7c78bLwvsdeMH5-34">
          <mxGeometry relative="1" as="geometry" />
        </mxCell>
        <mxCell id="bwc_zOErkG3k9N8ntBH8-23" value="(4)" style="edgeLabel;html=1;align=center;verticalAlign=middle;resizable=0;points=[];" vertex="1" connectable="0" parent="bwc_zOErkG3k9N8ntBH8-17">
          <mxGeometry x="-0.6299" y="3" relative="1" as="geometry">
            <mxPoint as="offset" />
          </mxGeometry>
        </mxCell>
        <mxCell id="bwc_zOErkG3k9N8ntBH8-18" style="edgeStyle=orthogonalEdgeStyle;rounded=0;orthogonalLoop=1;jettySize=auto;html=1;exitX=0.882;exitY=0;exitDx=0;exitDy=0;entryX=1;entryY=0.5;entryDx=0;entryDy=0;exitPerimeter=0;" edge="1" parent="dNxyNK7c78bLwvsdeMH5-19" source="dNxyNK7c78bLwvsdeMH5-34" target="bwc_zOErkG3k9N8ntBH8-12">
          <mxGeometry relative="1" as="geometry">
            <Array as="points">
              <mxPoint x="360" y="225" />
              <mxPoint x="430" y="225" />
              <mxPoint x="430" y="170" />
            </Array>
          </mxGeometry>
        </mxCell>
        <mxCell id="bwc_zOErkG3k9N8ntBH8-24" value="(5)" style="edgeLabel;html=1;align=center;verticalAlign=middle;resizable=0;points=[];" vertex="1" connectable="0" parent="bwc_zOErkG3k9N8ntBH8-18">
          <mxGeometry x="-0.3085" y="2" relative="1" as="geometry">
            <mxPoint as="offset" />
          </mxGeometry>
        </mxCell>
        <mxCell id="bwc_zOErkG3k9N8ntBH8-19" style="edgeStyle=orthogonalEdgeStyle;rounded=0;orthogonalLoop=1;jettySize=auto;html=1;exitX=1;exitY=0;exitDx=0;exitDy=0;entryX=0.923;entryY=1;entryDx=0;entryDy=0;entryPerimeter=0;" edge="1" parent="dNxyNK7c78bLwvsdeMH5-19" source="bwc_zOErkG3k9N8ntBH8-12" target="bwc_zOErkG3k9N8ntBH8-7">
          <mxGeometry relative="1" as="geometry" />
        </mxCell>
        <mxCell id="bwc_zOErkG3k9N8ntBH8-25" value="(6)" style="edgeLabel;html=1;align=center;verticalAlign=middle;resizable=0;points=[];" vertex="1" connectable="0" parent="bwc_zOErkG3k9N8ntBH8-19">
          <mxGeometry x="-0.0571" relative="1" as="geometry">
            <mxPoint as="offset" />
          </mxGeometry>
        </mxCell>
      </root>
    </mxGraphModel>
  </diagram>
  <diagram name="SIMS Transactional Data" id="qi8_pA6lsPacWLt6FEcG">
    <mxGraphModel dx="1266" dy="607" grid="1" gridSize="10" guides="1" tooltips="1" connect="1" arrows="1" fold="1" page="1" pageScale="1" pageWidth="827" pageHeight="1169" math="0" shadow="0">
      <root>
        <mxCell id="dlZ9cC09dqF2c4ICRJIX-0" />
        <mxCell id="dlZ9cC09dqF2c4ICRJIX-1" parent="dlZ9cC09dqF2c4ICRJIX-0" />
        <mxCell id="dlZ9cC09dqF2c4ICRJIX-2" value="SIMS Transactiobnal Data Interfaces" style="swimlane;html=1;childLayout=stackLayout;resizeParent=1;resizeParentMax=0;horizontal=0;startSize=20;horizontalStack=0;" vertex="1" parent="dlZ9cC09dqF2c4ICRJIX-1">
          <mxGeometry x="40" y="120" width="660" height="360" as="geometry" />
        </mxCell>
        <mxCell id="dlZ9cC09dqF2c4ICRJIX-3" value="SAP ECC" style="swimlane;html=1;startSize=20;horizontal=0;" vertex="1" parent="dlZ9cC09dqF2c4ICRJIX-2">
          <mxGeometry x="20" width="640" height="120" as="geometry" />
        </mxCell>
        <mxCell id="zojW8y4rWYzVXnOWKpGG-4" style="edgeStyle=orthogonalEdgeStyle;rounded=0;orthogonalLoop=1;jettySize=auto;html=1;exitX=1;exitY=0.5;exitDx=0;exitDy=0;entryX=0;entryY=0.5;entryDx=0;entryDy=0;" edge="1" parent="dlZ9cC09dqF2c4ICRJIX-3" source="dlZ9cC09dqF2c4ICRJIX-5" target="zojW8y4rWYzVXnOWKpGG-2">
          <mxGeometry relative="1" as="geometry" />
        </mxCell>
        <mxCell id="dlZ9cC09dqF2c4ICRJIX-5" value="ABAP Proxy" style="rounded=0;whiteSpace=wrap;html=1;fontFamily=Helvetica;fontSize=12;fontColor=#000000;align=center;" vertex="1" parent="dlZ9cC09dqF2c4ICRJIX-3">
          <mxGeometry x="55" y="30" width="120" height="60" as="geometry" />
        </mxCell>
        <mxCell id="zojW8y4rWYzVXnOWKpGG-5" style="edgeStyle=orthogonalEdgeStyle;rounded=0;orthogonalLoop=1;jettySize=auto;html=1;exitX=1;exitY=0.25;exitDx=0;exitDy=0;entryX=0;entryY=0.25;entryDx=0;entryDy=0;" edge="1" parent="dlZ9cC09dqF2c4ICRJIX-3" source="zojW8y4rWYzVXnOWKpGG-2" target="zojW8y4rWYzVXnOWKpGG-3">
          <mxGeometry relative="1" as="geometry" />
        </mxCell>
        <mxCell id="zojW8y4rWYzVXnOWKpGG-2" value="Transaction Upload Error Cockpit" style="rounded=0;whiteSpace=wrap;html=1;fontFamily=Helvetica;fontSize=12;fontColor=#000000;align=center;" vertex="1" parent="dlZ9cC09dqF2c4ICRJIX-3">
          <mxGeometry x="201" y="30" width="120" height="60" as="geometry" />
        </mxCell>
        <mxCell id="zojW8y4rWYzVXnOWKpGG-6" style="edgeStyle=orthogonalEdgeStyle;rounded=0;orthogonalLoop=1;jettySize=auto;html=1;exitX=0;exitY=0.75;exitDx=0;exitDy=0;entryX=1;entryY=0.75;entryDx=0;entryDy=0;" edge="1" parent="dlZ9cC09dqF2c4ICRJIX-3" source="zojW8y4rWYzVXnOWKpGG-3" target="zojW8y4rWYzVXnOWKpGG-2">
          <mxGeometry relative="1" as="geometry" />
        </mxCell>
        <mxCell id="zojW8y4rWYzVXnOWKpGG-3" value="BAPI_ACC_&lt;br&gt;DOCUMENT_POST" style="rounded=0;whiteSpace=wrap;html=1;fontFamily=Helvetica;fontSize=12;fontColor=#000000;align=center;" vertex="1" parent="dlZ9cC09dqF2c4ICRJIX-3">
          <mxGeometry x="340" y="30" width="120" height="60" as="geometry" />
        </mxCell>
        <mxCell id="zojW8y4rWYzVXnOWKpGG-7" value="Invoice Printed&lt;br&gt;ABAP Proxy" style="rounded=0;whiteSpace=wrap;html=1;fontFamily=Helvetica;fontSize=12;fontColor=#000000;align=center;" vertex="1" parent="dlZ9cC09dqF2c4ICRJIX-3">
          <mxGeometry x="500" y="30" width="120" height="60" as="geometry" />
        </mxCell>
        <mxCell id="dlZ9cC09dqF2c4ICRJIX-8" value="PI/PO" style="swimlane;html=1;startSize=20;horizontal=0;" vertex="1" parent="dlZ9cC09dqF2c4ICRJIX-2">
          <mxGeometry x="20" y="120" width="640" height="120" as="geometry" />
        </mxCell>
        <mxCell id="zojW8y4rWYzVXnOWKpGG-8" value="" style="rhombus;whiteSpace=wrap;html=1;fontFamily=Helvetica;fontSize=12;fontColor=#000000;align=center;" vertex="1" parent="dlZ9cC09dqF2c4ICRJIX-8">
          <mxGeometry x="540" y="40" width="40" height="40" as="geometry" />
        </mxCell>
        <mxCell id="zojW8y4rWYzVXnOWKpGG-9" value="&lt;div&gt;SOAP Broker&lt;/div&gt;" style="text;html=1;align=center;verticalAlign=middle;resizable=0;points=[];autosize=1;strokeColor=none;fillColor=none;" vertex="1" parent="dlZ9cC09dqF2c4ICRJIX-8">
          <mxGeometry x="510" y="80" width="100" height="30" as="geometry" />
        </mxCell>
        <mxCell id="dlZ9cC09dqF2c4ICRJIX-14" value="SIMS" style="swimlane;html=1;startSize=20;horizontal=0;" vertex="1" parent="dlZ9cC09dqF2c4ICRJIX-2">
          <mxGeometry x="20" y="240" width="640" height="120" as="geometry" />
        </mxCell>
        <mxCell id="dlZ9cC09dqF2c4ICRJIX-18" style="edgeStyle=orthogonalEdgeStyle;rounded=0;orthogonalLoop=1;jettySize=auto;html=1;" edge="1" parent="dlZ9cC09dqF2c4ICRJIX-14" source="dlZ9cC09dqF2c4ICRJIX-9">
          <mxGeometry relative="1" as="geometry">
            <mxPoint x="116" y="-148" as="targetPoint" />
          </mxGeometry>
        </mxCell>
        <mxCell id="dlZ9cC09dqF2c4ICRJIX-9" value="" style="rhombus;whiteSpace=wrap;html=1;fontFamily=Helvetica;fontSize=12;fontColor=#000000;align=center;" vertex="1" parent="dlZ9cC09dqF2c4ICRJIX-14">
          <mxGeometry x="96" y="-80" width="40" height="40" as="geometry" />
        </mxCell>
        <mxCell id="zojW8y4rWYzVXnOWKpGG-1" style="edgeStyle=orthogonalEdgeStyle;rounded=0;orthogonalLoop=1;jettySize=auto;html=1;" edge="1" parent="dlZ9cC09dqF2c4ICRJIX-14" source="dlZ9cC09dqF2c4ICRJIX-15" target="dlZ9cC09dqF2c4ICRJIX-9">
          <mxGeometry relative="1" as="geometry" />
        </mxCell>
        <mxCell id="dlZ9cC09dqF2c4ICRJIX-11" value="&lt;div&gt;SOAP Broker&lt;/div&gt;" style="text;html=1;align=center;verticalAlign=middle;resizable=0;points=[];autosize=1;strokeColor=none;fillColor=none;" vertex="1" parent="dlZ9cC09dqF2c4ICRJIX-14">
          <mxGeometry x="65" y="-40" width="100" height="30" as="geometry" />
        </mxCell>
        <mxCell id="dlZ9cC09dqF2c4ICRJIX-15" value="SIMS HTTP Message" style="rounded=0;whiteSpace=wrap;html=1;fontFamily=Helvetica;fontSize=12;fontColor=#000000;align=center;" vertex="1" parent="dlZ9cC09dqF2c4ICRJIX-14">
          <mxGeometry x="31" y="30" width="170" height="60" as="geometry" />
        </mxCell>
        <mxCell id="zojW8y4rWYzVXnOWKpGG-10" value="SIMS SOAP Endpoint" style="rounded=0;whiteSpace=wrap;html=1;fontFamily=Helvetica;fontSize=12;fontColor=#000000;align=center;" vertex="1" parent="dlZ9cC09dqF2c4ICRJIX-14">
          <mxGeometry x="459" y="30" width="170" height="60" as="geometry" />
        </mxCell>
        <mxCell id="zojW8y4rWYzVXnOWKpGG-11" style="edgeStyle=orthogonalEdgeStyle;rounded=0;orthogonalLoop=1;jettySize=auto;html=1;" edge="1" parent="dlZ9cC09dqF2c4ICRJIX-2" source="zojW8y4rWYzVXnOWKpGG-7" target="zojW8y4rWYzVXnOWKpGG-8">
          <mxGeometry relative="1" as="geometry" />
        </mxCell>
        <mxCell id="zojW8y4rWYzVXnOWKpGG-12" style="edgeStyle=orthogonalEdgeStyle;rounded=0;orthogonalLoop=1;jettySize=auto;html=1;entryX=0.594;entryY=0.033;entryDx=0;entryDy=0;entryPerimeter=0;" edge="1" parent="dlZ9cC09dqF2c4ICRJIX-2" source="zojW8y4rWYzVXnOWKpGG-9" target="zojW8y4rWYzVXnOWKpGG-10">
          <mxGeometry relative="1" as="geometry" />
        </mxCell>
      </root>
    </mxGraphModel>
  </diagram>
  <diagram id="-QgUr2d6O2MVkR4qAywh" name="CHRIS21">
    <mxGraphModel dx="1266" dy="607" grid="1" gridSize="10" guides="1" tooltips="1" connect="1" arrows="1" fold="1" page="1" pageScale="1" pageWidth="1654" pageHeight="1169" math="0" shadow="0">
      <root>
        <mxCell id="0" />
        <mxCell id="1" parent="0" />
        <mxCell id="HCXset_g-1DxLaZRUwUf-1" value="CHRIS21 Payroll Upload" style="swimlane;html=1;childLayout=stackLayout;resizeParent=1;resizeParentMax=0;horizontal=0;startSize=20;horizontalStack=0;" vertex="1" parent="1">
          <mxGeometry x="40" y="120" width="510" height="360" as="geometry" />
        </mxCell>
        <mxCell id="HCXset_g-1DxLaZRUwUf-2" value="SAP ECC" style="swimlane;html=1;startSize=20;horizontal=0;" vertex="1" parent="HCXset_g-1DxLaZRUwUf-1">
          <mxGeometry x="20" width="490" height="120" as="geometry" />
        </mxCell>
        <mxCell id="HCXset_g-1DxLaZRUwUf-3" style="edgeStyle=orthogonalEdgeStyle;rounded=0;orthogonalLoop=1;jettySize=auto;html=1;exitX=1;exitY=0.5;exitDx=0;exitDy=0;entryX=0;entryY=0.5;entryDx=0;entryDy=0;" edge="1" parent="HCXset_g-1DxLaZRUwUf-2" source="HCXset_g-1DxLaZRUwUf-4" target="HCXset_g-1DxLaZRUwUf-6">
          <mxGeometry relative="1" as="geometry" />
        </mxCell>
        <mxCell id="HCXset_g-1DxLaZRUwUf-4" value="ABAP Proxy" style="rounded=0;whiteSpace=wrap;html=1;fontFamily=Helvetica;fontSize=12;fontColor=#000000;align=center;" vertex="1" parent="HCXset_g-1DxLaZRUwUf-2">
          <mxGeometry x="55" y="30" width="120" height="60" as="geometry" />
        </mxCell>
        <mxCell id="HCXset_g-1DxLaZRUwUf-5" style="edgeStyle=orthogonalEdgeStyle;rounded=0;orthogonalLoop=1;jettySize=auto;html=1;exitX=1;exitY=0.25;exitDx=0;exitDy=0;entryX=0;entryY=0.25;entryDx=0;entryDy=0;" edge="1" parent="HCXset_g-1DxLaZRUwUf-2" source="HCXset_g-1DxLaZRUwUf-6" target="HCXset_g-1DxLaZRUwUf-8">
          <mxGeometry relative="1" as="geometry" />
        </mxCell>
        <mxCell id="HCXset_g-1DxLaZRUwUf-6" value="Transaction Upload Error Cockpit" style="rounded=0;whiteSpace=wrap;html=1;fontFamily=Helvetica;fontSize=12;fontColor=#000000;align=center;" vertex="1" parent="HCXset_g-1DxLaZRUwUf-2">
          <mxGeometry x="201" y="30" width="120" height="60" as="geometry" />
        </mxCell>
        <mxCell id="HCXset_g-1DxLaZRUwUf-7" style="edgeStyle=orthogonalEdgeStyle;rounded=0;orthogonalLoop=1;jettySize=auto;html=1;exitX=0;exitY=0.75;exitDx=0;exitDy=0;entryX=1;entryY=0.75;entryDx=0;entryDy=0;" edge="1" parent="HCXset_g-1DxLaZRUwUf-2" source="HCXset_g-1DxLaZRUwUf-8" target="HCXset_g-1DxLaZRUwUf-6">
          <mxGeometry relative="1" as="geometry" />
        </mxCell>
        <mxCell id="HCXset_g-1DxLaZRUwUf-8" value="BAPI_ACC_&lt;br&gt;DOCUMENT_POST" style="rounded=0;whiteSpace=wrap;html=1;fontFamily=Helvetica;fontSize=12;fontColor=#000000;align=center;" vertex="1" parent="HCXset_g-1DxLaZRUwUf-2">
          <mxGeometry x="340" y="30" width="120" height="60" as="geometry" />
        </mxCell>
        <mxCell id="HCXset_g-1DxLaZRUwUf-10" value="PI/PO" style="swimlane;html=1;startSize=20;horizontal=0;" vertex="1" parent="HCXset_g-1DxLaZRUwUf-1">
          <mxGeometry x="20" y="120" width="490" height="120" as="geometry" />
        </mxCell>
        <mxCell id="HCXset_g-1DxLaZRUwUf-26" style="edgeStyle=orthogonalEdgeStyle;rounded=0;orthogonalLoop=1;jettySize=auto;html=1;exitX=1;exitY=0.5;exitDx=0;exitDy=0;entryX=0;entryY=0.5;entryDx=0;entryDy=0;" edge="1" parent="HCXset_g-1DxLaZRUwUf-10" source="HCXset_g-1DxLaZRUwUf-22" target="HCXset_g-1DxLaZRUwUf-24">
          <mxGeometry relative="1" as="geometry" />
        </mxCell>
        <mxCell id="HCXset_g-1DxLaZRUwUf-22" value="" style="image;aspect=fixed;perimeter=ellipsePerimeter;html=1;align=center;shadow=0;dashed=0;spacingTop=3;image=img/lib/active_directory/folder.svg;" vertex="1" parent="HCXset_g-1DxLaZRUwUf-10">
          <mxGeometry x="55" y="35" width="36.5" height="50" as="geometry" />
        </mxCell>
        <mxCell id="HCXset_g-1DxLaZRUwUf-24" value="" style="rhombus;whiteSpace=wrap;html=1;fontFamily=Helvetica;fontSize=12;fontColor=#000000;align=center;" vertex="1" parent="HCXset_g-1DxLaZRUwUf-10">
          <mxGeometry x="132" y="40" width="40" height="40" as="geometry" />
        </mxCell>
        <mxCell id="HCXset_g-1DxLaZRUwUf-27" value="&lt;div&gt;File Share&lt;/div&gt;" style="text;html=1;align=center;verticalAlign=middle;resizable=0;points=[];autosize=1;strokeColor=none;fillColor=none;" vertex="1" parent="HCXset_g-1DxLaZRUwUf-10">
          <mxGeometry x="33.25" y="10" width="80" height="30" as="geometry" />
        </mxCell>
        <mxCell id="HCXset_g-1DxLaZRUwUf-13" value="CHRIS21" style="swimlane;html=1;startSize=20;horizontal=0;" vertex="1" parent="HCXset_g-1DxLaZRUwUf-1">
          <mxGeometry x="20" y="240" width="490" height="120" as="geometry" />
        </mxCell>
        <mxCell id="HCXset_g-1DxLaZRUwUf-18" value="File output" style="rounded=0;whiteSpace=wrap;html=1;fontFamily=Helvetica;fontSize=12;fontColor=#000000;align=center;" vertex="1" parent="HCXset_g-1DxLaZRUwUf-13">
          <mxGeometry x="31" y="30" width="170" height="60" as="geometry" />
        </mxCell>
        <mxCell id="HCXset_g-1DxLaZRUwUf-23" style="edgeStyle=orthogonalEdgeStyle;rounded=0;orthogonalLoop=1;jettySize=auto;html=1;exitX=0.25;exitY=0;exitDx=0;exitDy=0;" edge="1" parent="HCXset_g-1DxLaZRUwUf-1" source="HCXset_g-1DxLaZRUwUf-18" target="HCXset_g-1DxLaZRUwUf-22">
          <mxGeometry relative="1" as="geometry" />
        </mxCell>
        <mxCell id="HCXset_g-1DxLaZRUwUf-28" style="edgeStyle=orthogonalEdgeStyle;rounded=0;orthogonalLoop=1;jettySize=auto;html=1;exitX=0.5;exitY=0;exitDx=0;exitDy=0;entryX=0.808;entryY=1.067;entryDx=0;entryDy=0;entryPerimeter=0;" edge="1" parent="HCXset_g-1DxLaZRUwUf-1" source="HCXset_g-1DxLaZRUwUf-24" target="HCXset_g-1DxLaZRUwUf-4">
          <mxGeometry relative="1" as="geometry" />
        </mxCell>
      </root>
    </mxGraphModel>
  </diagram>
  <diagram id="gc6a_qZcDTVVNMWOvC5y" name="CAAPS">
    <mxGraphModel dx="1266" dy="607" grid="1" gridSize="10" guides="1" tooltips="1" connect="1" arrows="1" fold="1" page="1" pageScale="1" pageWidth="1654" pageHeight="1169" math="0" shadow="0">
      <root>
        <mxCell id="0" />
        <mxCell id="1" parent="0" />
        <mxCell id="p4E1NjuK1SFArgAX_EK7-1" value="CAAPS Interfaces" style="swimlane;html=1;childLayout=stackLayout;resizeParent=1;resizeParentMax=0;horizontal=0;startSize=20;horizontalStack=0;" vertex="1" parent="1">
          <mxGeometry x="40" y="120" width="570" height="360" as="geometry" />
        </mxCell>
        <mxCell id="p4E1NjuK1SFArgAX_EK7-2" value="SAP ECC" style="swimlane;html=1;startSize=20;horizontal=0;" vertex="1" parent="p4E1NjuK1SFArgAX_EK7-1">
          <mxGeometry x="20" width="550" height="120" as="geometry" />
        </mxCell>
        <mxCell id="p4E1NjuK1SFArgAX_EK7-4" value="Supplier Data&amp;nbsp;" style="rounded=0;whiteSpace=wrap;html=1;fontFamily=Helvetica;fontSize=12;fontColor=#000000;align=center;" vertex="1" parent="p4E1NjuK1SFArgAX_EK7-2">
          <mxGeometry x="55" y="30" width="120" height="60" as="geometry" />
        </mxCell>
        <mxCell id="KT-_Jsc-BfrzgdLZstuY-7" style="edgeStyle=orthogonalEdgeStyle;rounded=0;orthogonalLoop=1;jettySize=auto;html=1;exitX=1;exitY=0.5;exitDx=0;exitDy=0;entryX=0;entryY=0.5;entryDx=0;entryDy=0;" edge="1" parent="p4E1NjuK1SFArgAX_EK7-2" source="KT-_Jsc-BfrzgdLZstuY-1" target="KT-_Jsc-BfrzgdLZstuY-6">
          <mxGeometry relative="1" as="geometry" />
        </mxCell>
        <mxCell id="KT-_Jsc-BfrzgdLZstuY-1" value="ABAP Proxy" style="rounded=0;whiteSpace=wrap;html=1;fontFamily=Helvetica;fontSize=12;fontColor=#000000;align=center;" vertex="1" parent="p4E1NjuK1SFArgAX_EK7-2">
          <mxGeometry x="220" y="30" width="120" height="60" as="geometry" />
        </mxCell>
        <mxCell id="KT-_Jsc-BfrzgdLZstuY-6" value="Readsoft Invoice Cockpit" style="rounded=0;whiteSpace=wrap;html=1;fontFamily=Helvetica;fontSize=12;fontColor=#000000;align=center;" vertex="1" parent="p4E1NjuK1SFArgAX_EK7-2">
          <mxGeometry x="390" y="30" width="120" height="60" as="geometry" />
        </mxCell>
        <mxCell id="p4E1NjuK1SFArgAX_EK7-10" value="PI/PO" style="swimlane;html=1;startSize=20;horizontal=0;" vertex="1" parent="p4E1NjuK1SFArgAX_EK7-1">
          <mxGeometry x="20" y="120" width="550" height="120" as="geometry" />
        </mxCell>
        <mxCell id="y2njrV-3QAiP7gtYrks0-1" value="" style="image;aspect=fixed;perimeter=ellipsePerimeter;html=1;align=center;shadow=0;dashed=0;spacingTop=3;image=img/lib/active_directory/folder.svg;" vertex="1" parent="p4E1NjuK1SFArgAX_EK7-10">
          <mxGeometry x="67" y="35" width="36.5" height="50" as="geometry" />
        </mxCell>
        <mxCell id="y2njrV-3QAiP7gtYrks0-5" value="" style="image;aspect=fixed;perimeter=ellipsePerimeter;html=1;align=center;shadow=0;dashed=0;spacingTop=3;image=img/lib/active_directory/folder.svg;" vertex="1" parent="p4E1NjuK1SFArgAX_EK7-10">
          <mxGeometry x="220" y="35" width="36.5" height="50" as="geometry" />
        </mxCell>
        <mxCell id="y2njrV-3QAiP7gtYrks0-7" value="" style="endArrow=classic;html=1;rounded=0;exitX=0.429;exitY=0.025;exitDx=0;exitDy=0;exitPerimeter=0;" edge="1" parent="p4E1NjuK1SFArgAX_EK7-10" source="p4E1NjuK1SFArgAX_EK7-18">
          <mxGeometry width="50" height="50" relative="1" as="geometry">
            <mxPoint x="237.75" y="130" as="sourcePoint" />
            <mxPoint x="237.75" y="80" as="targetPoint" />
          </mxGeometry>
        </mxCell>
        <mxCell id="KT-_Jsc-BfrzgdLZstuY-3" value="" style="rhombus;whiteSpace=wrap;html=1;fontFamily=Helvetica;fontSize=12;fontColor=#000000;align=center;" vertex="1" parent="p4E1NjuK1SFArgAX_EK7-10">
          <mxGeometry x="297" y="40" width="40" height="40" as="geometry" />
        </mxCell>
        <mxCell id="p4E1NjuK1SFArgAX_EK7-13" value="CAAPS" style="swimlane;html=1;startSize=20;horizontal=0;" vertex="1" parent="p4E1NjuK1SFArgAX_EK7-1">
          <mxGeometry x="20" y="240" width="550" height="120" as="geometry" />
        </mxCell>
        <mxCell id="p4E1NjuK1SFArgAX_EK7-18" value="CAAPS SFTP Server" style="rounded=0;whiteSpace=wrap;html=1;fontFamily=Helvetica;fontSize=12;fontColor=#000000;align=center;" vertex="1" parent="p4E1NjuK1SFArgAX_EK7-13">
          <mxGeometry x="32" y="30" width="478" height="60" as="geometry" />
        </mxCell>
        <mxCell id="y2njrV-3QAiP7gtYrks0-3" style="edgeStyle=orthogonalEdgeStyle;rounded=0;orthogonalLoop=1;jettySize=auto;html=1;exitX=0.25;exitY=1;exitDx=0;exitDy=0;" edge="1" parent="p4E1NjuK1SFArgAX_EK7-1" source="p4E1NjuK1SFArgAX_EK7-4" target="y2njrV-3QAiP7gtYrks0-1">
          <mxGeometry relative="1" as="geometry" />
        </mxCell>
        <mxCell id="y2njrV-3QAiP7gtYrks0-4" style="edgeStyle=orthogonalEdgeStyle;rounded=0;orthogonalLoop=1;jettySize=auto;html=1;exitX=0.5;exitY=1;exitDx=0;exitDy=0;entryX=0.111;entryY=0.058;entryDx=0;entryDy=0;entryPerimeter=0;" edge="1" parent="p4E1NjuK1SFArgAX_EK7-1" source="y2njrV-3QAiP7gtYrks0-1" target="p4E1NjuK1SFArgAX_EK7-18">
          <mxGeometry relative="1" as="geometry" />
        </mxCell>
        <mxCell id="KT-_Jsc-BfrzgdLZstuY-4" style="edgeStyle=orthogonalEdgeStyle;rounded=0;orthogonalLoop=1;jettySize=auto;html=1;exitX=0.5;exitY=0;exitDx=0;exitDy=0;entryX=0.808;entryY=1.067;entryDx=0;entryDy=0;entryPerimeter=0;" edge="1" parent="p4E1NjuK1SFArgAX_EK7-1" source="KT-_Jsc-BfrzgdLZstuY-3" target="KT-_Jsc-BfrzgdLZstuY-1">
          <mxGeometry relative="1" as="geometry" />
        </mxCell>
        <mxCell id="KT-_Jsc-BfrzgdLZstuY-2" style="edgeStyle=orthogonalEdgeStyle;rounded=0;orthogonalLoop=1;jettySize=auto;html=1;entryX=0;entryY=0.5;entryDx=0;entryDy=0;" edge="1" parent="1" target="KT-_Jsc-BfrzgdLZstuY-3">
          <mxGeometry relative="1" as="geometry">
            <mxPoint x="320" y="300" as="sourcePoint" />
          </mxGeometry>
        </mxCell>
      </root>
    </mxGraphModel>
  </diagram>
  <diagram name="NGR" id="DrnmiPstnq_SdbXSYRaC">
    <mxGraphModel dx="1266" dy="607" grid="1" gridSize="10" guides="1" tooltips="1" connect="1" arrows="1" fold="1" page="1" pageScale="1" pageWidth="1654" pageHeight="1169" math="0" shadow="0">
      <root>
        <mxCell id="Kx-eHw4-jqBMUjbEcqkz-0" />
        <mxCell id="Kx-eHw4-jqBMUjbEcqkz-1" parent="Kx-eHw4-jqBMUjbEcqkz-0" />
        <mxCell id="Kx-eHw4-jqBMUjbEcqkz-2" value="NGR Interface" style="swimlane;html=1;childLayout=stackLayout;resizeParent=1;resizeParentMax=0;horizontal=0;startSize=20;horizontalStack=0;" vertex="1" parent="Kx-eHw4-jqBMUjbEcqkz-1">
          <mxGeometry x="40" y="120" width="690" height="360" as="geometry" />
        </mxCell>
        <mxCell id="Kx-eHw4-jqBMUjbEcqkz-3" value="SAP ECC" style="swimlane;html=1;startSize=20;horizontal=0;" vertex="1" parent="Kx-eHw4-jqBMUjbEcqkz-2">
          <mxGeometry x="20" width="670" height="120" as="geometry" />
        </mxCell>
        <mxCell id="Kx-eHw4-jqBMUjbEcqkz-5" style="edgeStyle=orthogonalEdgeStyle;rounded=0;orthogonalLoop=1;jettySize=auto;html=1;exitX=1;exitY=0.5;exitDx=0;exitDy=0;entryX=0;entryY=0.5;entryDx=0;entryDy=0;" edge="1" parent="Kx-eHw4-jqBMUjbEcqkz-3" source="Kx-eHw4-jqBMUjbEcqkz-6" target="Kx-eHw4-jqBMUjbEcqkz-7">
          <mxGeometry relative="1" as="geometry" />
        </mxCell>
        <mxCell id="Kx-eHw4-jqBMUjbEcqkz-6" value="ABAP Proxy" style="rounded=0;whiteSpace=wrap;html=1;fontFamily=Helvetica;fontSize=12;fontColor=#000000;align=center;" vertex="1" parent="Kx-eHw4-jqBMUjbEcqkz-3">
          <mxGeometry x="290" y="30" width="120" height="60" as="geometry" />
        </mxCell>
        <mxCell id="Kx-eHw4-jqBMUjbEcqkz-7" value="BAPI_BUPA_*" style="rounded=0;whiteSpace=wrap;html=1;fontFamily=Helvetica;fontSize=12;fontColor=#000000;align=center;" vertex="1" parent="Kx-eHw4-jqBMUjbEcqkz-3">
          <mxGeometry x="500" y="30" width="120" height="60" as="geometry" />
        </mxCell>
        <mxCell id="Kx-eHw4-jqBMUjbEcqkz-8" value="PI/PO" style="swimlane;html=1;startSize=20;horizontal=0;" vertex="1" parent="Kx-eHw4-jqBMUjbEcqkz-2">
          <mxGeometry x="20" y="120" width="670" height="120" as="geometry" />
        </mxCell>
        <mxCell id="w7QMS9TES5JICocqaFN5-2" style="edgeStyle=orthogonalEdgeStyle;rounded=0;orthogonalLoop=1;jettySize=auto;html=1;entryX=0;entryY=0.5;entryDx=0;entryDy=0;" edge="1" parent="Kx-eHw4-jqBMUjbEcqkz-8" source="Kx-eHw4-jqBMUjbEcqkz-9" target="Kx-eHw4-jqBMUjbEcqkz-12">
          <mxGeometry relative="1" as="geometry" />
        </mxCell>
        <mxCell id="Kx-eHw4-jqBMUjbEcqkz-9" value="" style="image;aspect=fixed;perimeter=ellipsePerimeter;html=1;align=center;shadow=0;dashed=0;spacingTop=3;image=img/lib/active_directory/folder.svg;" vertex="1" parent="Kx-eHw4-jqBMUjbEcqkz-8">
          <mxGeometry x="67" y="35" width="36.5" height="50" as="geometry" />
        </mxCell>
        <mxCell id="w7QMS9TES5JICocqaFN5-8" style="edgeStyle=orthogonalEdgeStyle;rounded=0;orthogonalLoop=1;jettySize=auto;html=1;exitX=1;exitY=0.5;exitDx=0;exitDy=0;entryX=0;entryY=0.5;entryDx=0;entryDy=0;" edge="1" parent="Kx-eHw4-jqBMUjbEcqkz-8" source="Kx-eHw4-jqBMUjbEcqkz-10" target="w7QMS9TES5JICocqaFN5-4">
          <mxGeometry relative="1" as="geometry" />
        </mxCell>
        <mxCell id="Kx-eHw4-jqBMUjbEcqkz-10" value="" style="image;aspect=fixed;perimeter=ellipsePerimeter;html=1;align=center;shadow=0;dashed=0;spacingTop=3;image=img/lib/active_directory/folder.svg;" vertex="1" parent="Kx-eHw4-jqBMUjbEcqkz-8">
          <mxGeometry x="220" y="35" width="36.5" height="50" as="geometry" />
        </mxCell>
        <mxCell id="w7QMS9TES5JICocqaFN5-3" style="edgeStyle=orthogonalEdgeStyle;rounded=0;orthogonalLoop=1;jettySize=auto;html=1;exitX=1;exitY=0.5;exitDx=0;exitDy=0;entryX=0;entryY=0.5;entryDx=0;entryDy=0;" edge="1" parent="Kx-eHw4-jqBMUjbEcqkz-8" source="Kx-eHw4-jqBMUjbEcqkz-12" target="Kx-eHw4-jqBMUjbEcqkz-10">
          <mxGeometry relative="1" as="geometry" />
        </mxCell>
        <mxCell id="Kx-eHw4-jqBMUjbEcqkz-12" value="" style="rhombus;whiteSpace=wrap;html=1;fontFamily=Helvetica;fontSize=12;fontColor=#000000;align=center;" vertex="1" parent="Kx-eHw4-jqBMUjbEcqkz-8">
          <mxGeometry x="140" y="40" width="40" height="40" as="geometry" />
        </mxCell>
        <mxCell id="w7QMS9TES5JICocqaFN5-1" value="Split File" style="text;html=1;align=center;verticalAlign=middle;resizable=0;points=[];autosize=1;strokeColor=none;fillColor=none;" vertex="1" parent="Kx-eHw4-jqBMUjbEcqkz-8">
          <mxGeometry x="125" y="80" width="70" height="30" as="geometry" />
        </mxCell>
        <mxCell id="w7QMS9TES5JICocqaFN5-4" value="" style="rhombus;whiteSpace=wrap;html=1;fontFamily=Helvetica;fontSize=12;fontColor=#000000;align=center;" vertex="1" parent="Kx-eHw4-jqBMUjbEcqkz-8">
          <mxGeometry x="300" y="40" width="40" height="40" as="geometry" />
        </mxCell>
        <mxCell id="w7QMS9TES5JICocqaFN5-5" value="BPM" style="text;html=1;align=center;verticalAlign=middle;resizable=0;points=[];autosize=1;strokeColor=none;fillColor=none;" vertex="1" parent="Kx-eHw4-jqBMUjbEcqkz-8">
          <mxGeometry x="295" y="80" width="50" height="30" as="geometry" />
        </mxCell>
        <mxCell id="Kx-eHw4-jqBMUjbEcqkz-13" value="NGR" style="swimlane;html=1;startSize=20;horizontal=0;" vertex="1" parent="Kx-eHw4-jqBMUjbEcqkz-2">
          <mxGeometry x="20" y="240" width="670" height="120" as="geometry" />
        </mxCell>
        <mxCell id="Kx-eHw4-jqBMUjbEcqkz-14" value="NGR Broker Service" style="rounded=0;whiteSpace=wrap;html=1;fontFamily=Helvetica;fontSize=12;fontColor=#000000;align=center;" vertex="1" parent="Kx-eHw4-jqBMUjbEcqkz-13">
          <mxGeometry x="32" y="30" width="478" height="60" as="geometry" />
        </mxCell>
        <mxCell id="Kx-eHw4-jqBMUjbEcqkz-11" value="" style="endArrow=classic;html=1;rounded=0;exitX=0.429;exitY=0.025;exitDx=0;exitDy=0;exitPerimeter=0;" edge="1" parent="Kx-eHw4-jqBMUjbEcqkz-13">
          <mxGeometry width="50" height="50" relative="1" as="geometry">
            <mxPoint x="84.7519999999999" y="31.5" as="sourcePoint" />
            <mxPoint x="85.44" y="-40" as="targetPoint" />
          </mxGeometry>
        </mxCell>
        <mxCell id="w7QMS9TES5JICocqaFN5-9" style="edgeStyle=orthogonalEdgeStyle;rounded=0;orthogonalLoop=1;jettySize=auto;html=1;exitX=0.5;exitY=0;exitDx=0;exitDy=0;entryX=0.25;entryY=1;entryDx=0;entryDy=0;" edge="1" parent="Kx-eHw4-jqBMUjbEcqkz-2" source="w7QMS9TES5JICocqaFN5-4" target="Kx-eHw4-jqBMUjbEcqkz-6">
          <mxGeometry relative="1" as="geometry" />
        </mxCell>
      </root>
    </mxGraphModel>
  </diagram>
  <diagram id="DDwuWHyZ98tvYFqq18zx" name="CBA">
    <mxGraphModel dx="1266" dy="607" grid="1" gridSize="10" guides="1" tooltips="1" connect="1" arrows="1" fold="1" page="1" pageScale="1" pageWidth="1654" pageHeight="1169" math="0" shadow="0">
      <root>
        <mxCell id="0" />
        <mxCell id="1" parent="0" />
        <mxCell id="-66ZPVT90OLabtx3uE9C-1" value="CBA Interfaces" style="swimlane;html=1;childLayout=stackLayout;resizeParent=1;resizeParentMax=0;horizontal=0;startSize=20;horizontalStack=0;" vertex="1" parent="1">
          <mxGeometry x="40" y="120" width="690" height="360" as="geometry" />
        </mxCell>
        <mxCell id="-66ZPVT90OLabtx3uE9C-2" value="SAP ECC" style="swimlane;html=1;startSize=20;horizontal=0;" vertex="1" parent="-66ZPVT90OLabtx3uE9C-1">
          <mxGeometry x="20" width="670" height="120" as="geometry" />
        </mxCell>
        <mxCell id="-66ZPVT90OLabtx3uE9C-21" style="edgeStyle=orthogonalEdgeStyle;rounded=0;orthogonalLoop=1;jettySize=auto;html=1;" edge="1" parent="-66ZPVT90OLabtx3uE9C-2" source="-66ZPVT90OLabtx3uE9C-5" target="-66ZPVT90OLabtx3uE9C-20">
          <mxGeometry relative="1" as="geometry" />
        </mxCell>
        <mxCell id="-66ZPVT90OLabtx3uE9C-5" value="ABAP File Generation" style="rounded=0;whiteSpace=wrap;html=1;fontFamily=Helvetica;fontSize=12;fontColor=#000000;align=center;" vertex="1" parent="-66ZPVT90OLabtx3uE9C-2">
          <mxGeometry x="70" y="20" width="120" height="60" as="geometry" />
        </mxCell>
        <mxCell id="-66ZPVT90OLabtx3uE9C-20" value="" style="image;aspect=fixed;perimeter=ellipsePerimeter;html=1;align=center;shadow=0;dashed=0;spacingTop=3;image=img/lib/active_directory/folder.svg;" vertex="1" parent="-66ZPVT90OLabtx3uE9C-2">
          <mxGeometry x="252.75" y="25" width="36.5" height="50" as="geometry" />
        </mxCell>
        <mxCell id="REsKecuMTMnmWzHkLoJH-9" style="edgeStyle=orthogonalEdgeStyle;rounded=0;orthogonalLoop=1;jettySize=auto;html=1;entryX=0;entryY=0.5;entryDx=0;entryDy=0;" edge="1" parent="-66ZPVT90OLabtx3uE9C-2" source="REsKecuMTMnmWzHkLoJH-5" target="REsKecuMTMnmWzHkLoJH-6">
          <mxGeometry relative="1" as="geometry" />
        </mxCell>
        <mxCell id="REsKecuMTMnmWzHkLoJH-5" value="" style="verticalLabelPosition=bottom;html=1;verticalAlign=top;align=center;strokeColor=none;fillColor=#00BEF2;shape=mxgraph.azure.user;" vertex="1" parent="-66ZPVT90OLabtx3uE9C-2">
          <mxGeometry x="420" y="30" width="47.5" height="50" as="geometry" />
        </mxCell>
        <mxCell id="REsKecuMTMnmWzHkLoJH-6" value="Bank Statement Upload" style="rounded=0;whiteSpace=wrap;html=1;fontFamily=Helvetica;fontSize=12;fontColor=#000000;align=center;" vertex="1" parent="-66ZPVT90OLabtx3uE9C-2">
          <mxGeometry x="520" y="25" width="120" height="60" as="geometry" />
        </mxCell>
        <mxCell id="-66ZPVT90OLabtx3uE9C-6" value="Move-It" style="swimlane;html=1;startSize=20;horizontal=0;" vertex="1" parent="-66ZPVT90OLabtx3uE9C-1">
          <mxGeometry x="20" y="120" width="670" height="120" as="geometry" />
        </mxCell>
        <mxCell id="REsKecuMTMnmWzHkLoJH-1" value="" style="rhombus;whiteSpace=wrap;html=1;fontFamily=Helvetica;fontSize=12;fontColor=#000000;align=center;" vertex="1" parent="-66ZPVT90OLabtx3uE9C-6">
          <mxGeometry x="251.75" y="39" width="40" height="40" as="geometry" />
        </mxCell>
        <mxCell id="-66ZPVT90OLabtx3uE9C-16" value="CBA" style="swimlane;html=1;startSize=20;horizontal=0;" vertex="1" parent="-66ZPVT90OLabtx3uE9C-1">
          <mxGeometry x="20" y="240" width="670" height="120" as="geometry" />
        </mxCell>
        <mxCell id="-66ZPVT90OLabtx3uE9C-17" value="CBA SFTP" style="rounded=0;whiteSpace=wrap;html=1;fontFamily=Helvetica;fontSize=12;fontColor=#000000;align=center;" vertex="1" parent="-66ZPVT90OLabtx3uE9C-16">
          <mxGeometry x="32" y="30" width="608" height="60" as="geometry" />
        </mxCell>
        <mxCell id="REsKecuMTMnmWzHkLoJH-2" style="edgeStyle=orthogonalEdgeStyle;rounded=0;orthogonalLoop=1;jettySize=auto;html=1;exitX=0.5;exitY=1;exitDx=0;exitDy=0;entryX=0.5;entryY=0;entryDx=0;entryDy=0;" edge="1" parent="-66ZPVT90OLabtx3uE9C-1" source="-66ZPVT90OLabtx3uE9C-20" target="REsKecuMTMnmWzHkLoJH-1">
          <mxGeometry relative="1" as="geometry" />
        </mxCell>
        <mxCell id="REsKecuMTMnmWzHkLoJH-3" style="edgeStyle=orthogonalEdgeStyle;rounded=0;orthogonalLoop=1;jettySize=auto;html=1;exitX=0.5;exitY=1;exitDx=0;exitDy=0;entryX=0.393;entryY=-0.067;entryDx=0;entryDy=0;entryPerimeter=0;" edge="1" parent="-66ZPVT90OLabtx3uE9C-1" source="REsKecuMTMnmWzHkLoJH-1" target="-66ZPVT90OLabtx3uE9C-17">
          <mxGeometry relative="1" as="geometry" />
        </mxCell>
        <mxCell id="REsKecuMTMnmWzHkLoJH-8" style="edgeStyle=orthogonalEdgeStyle;rounded=0;orthogonalLoop=1;jettySize=auto;html=1;" edge="1" parent="-66ZPVT90OLabtx3uE9C-1" source="-66ZPVT90OLabtx3uE9C-17" target="REsKecuMTMnmWzHkLoJH-5">
          <mxGeometry relative="1" as="geometry">
            <Array as="points">
              <mxPoint x="464" y="220" />
              <mxPoint x="464" y="220" />
            </Array>
          </mxGeometry>
        </mxCell>
      </root>
    </mxGraphModel>
  </diagram>
</mxfile>
